{
	"asset":{
		"generator":"Khronos glTF Blender I/O v3.5.30",
		"version":"2.0"
	},
	"scene":0,
	"scenes":[
		{
			"name":"Scene",
			"nodes":[
				0,
				1,
				2,
				3,
				4
			]
		}
	],
	"nodes":[
		{
			"camera":0,
			"name":"Camera",
			"rotation":[
				-0.20274142920970917,
				0.3896290957927704,
				0.10728263854980469,
				0.8919505476951599
			],
			"translation":[
				8.073030471801758,
				5.659677028656006,
				6.741089820861816
			]
		},
		{
			"mesh":0,
			"name":"Cube.003",
			"scale":[
				-0.5446780920028687,
				-0.5446780920028687,
				-0.5446780920028687
			],
			"translation":[
				-1.7095980644226074,
				0.6663869023323059,
				-1.3340389728546143
			]
		},
		{
			"mesh":0,
			"name":"Cube.002",
			"scale":[
				-0.9855682253837585,
				-0.9855682253837585,
				-0.9855682253837585
			],
			"translation":[
				-2.1485445499420166,
				-0.9152989387512207,
				-2.60685396194458
			]
		},
		{
			"mesh":0,
			"name":"Cube.004",
			"scale":[
				-0.5446780920028687,
				-0.5446780920028687,
				-0.5446780920028687
			],
			"translation":[
				0.7315826416015625,
				0.6120316982269287,
				-1.3340389728546143
			]
		},
		{
			"mesh":0,
			"name":"Cube.001",
			"scale":[
				0.28978773951530457,
				0.28978773951530457,
				0.28978773951530457
			],
			"translation":[
				0.5076649188995361,
				-0.5766329765319824,
				-2.9845805168151855
			]
		}
	],
	"cameras":[
		{
			"name":"Camera",
			"perspective":{
				"aspectRatio":1.7777777777777777,
				"yfov":0.39959652046304894,
				"zfar":100,
				"znear":0.10000000149011612
			},
			"type":"perspective"
		}
	],
	"materials":[
		{
			"doubleSided":true,
			"name":"Grass.004",
			"pbrMetallicRoughness":{
				"baseColorTexture":{
					"index":0
				},
				"metallicFactor":0,
				"roughnessFactor":0.5
			}
		}
	],
	"meshes":[
		{
			"name":"Cube",
			"primitives":[
				{
					"attributes":{
						"POSITION":0,
						"TEXCOORD_0":1,
						"NORMAL":2
					},
					"indices":3,
					"material":0
				}
			]
		}
	],
	"textures":[
		{
			"sampler":0,
			"source":0
		}
	],
	"images":[
		{
			"bufferView":4,
			"mimeType":"image/jpeg",
			"name":"grass"
		}
	],
	"accessors":[
		{
			"bufferView":0,
			"componentType":5126,
			"count":24,
			"max":[
				1,
				1,
				1
			],
			"min":[
				-1,
				-1,
				-1
			],
			"type":"VEC3"
		},
		{
			"bufferView":1,
			"componentType":5126,
			"count":24,
			"type":"VEC2"
		},
		{
			"bufferView":2,
			"componentType":5126,
			"count":24,
			"type":"VEC3"
		},
		{
			"bufferView":3,
			"componentType":5123,
			"count":36,
			"type":"SCALAR"
		}
	],
	"bufferViews":[
		{
			"buffer":0,
			"byteLength":288,
			"byteOffset":0,
			"target":34962
		},
		{
			"buffer":0,
			"byteLength":192,
			"byteOffset":288,
			"target":34962
		},
		{
			"buffer":0,
			"byteLength":288,
			"byteOffset":480,
			"target":34962
		},
		{
			"buffer":0,
			"byteLength":72,
			"byteOffset":768,
			"target":34963
		},
		{
			"buffer":0,
			"byteLength":276361,
			"byteOffset":840
		}
	],
	"samplers":[
		{
			"magFilter":9729,
			"minFilter":9987
		}
	],
	"buffers":[
		{
			"byteLength":277204,
			"uri":"data:application/octet-stream;base64,"
		}
	]
}
